{
	"asset":{
		"generator":"Khronos glTF Blender I/O v5.0.21",
		"version":"2.0"
	},
	"extensionsUsed":[
		"KHR_lights_punctual",
		"KHR_texture_basisu"
	],
	"extensionsRequired":[
		"KHR_lights_punctual",
		"KHR_texture_basisu"
	],
	"extensions":{
		"KHR_lights_punctual":{
			"lights":[
				{
					"color":[
						1,
						1,
						1
					],
					"intensity":54351.41306588226,
					"type":"point",
					"name":"Light"
				},
				{
					"color":[
						1,
						1,
						1
					],
					"intensity":54351.41306588226,
					"type":"point",
					"name":"Light.001"
				}
			]
		}
	},
	"scene":0,
	"scenes":[
		{
			"name":"Scene",
			"nodes":[
				0,
				1,
				2
			]
		}
	],
	"nodes":[
		{
			"extensions":{
				"KHR_lights_punctual":{
					"light":0
				}
			},
			"name":"Light",
			"rotation":[
				0.16907574236392975,
				0.27217137813568115,
				0.7558803558349609,
				0.570947527885437
			],
			"translation":[
				4.076245307922363,
				1.0054539442062378,
				5.903861999511719
			]
		},
		{
			"extensions":{
				"KHR_lights_punctual":{
					"light":1
				}
			},
			"name":"Light.001",
			"rotation":[
				0.16907574236392975,
				0.27217137813568115,
				0.7558803558349609,
				0.570947527885437
			],
			"translation":[
				-4.102510452270508,
				-0.8974113464355469,
				3.101449728012085
			]
		},
		{
			"mesh":0,
			"name":"node_damagedHelmet_-6514",
			"rotation":[
				0.70710688829422,
				0,
				0,
				0.7071066498756409
			]
		}
	],
	"materials":[
		{
			"emissiveFactor":[
				1,
				1,
				1
			],
			"emissiveTexture":{
				"index":0
			},
			"name":"Material_MR",
			"normalTexture":{
				"index":1
			},
			"occlusionTexture":{
				"index":2
			},
			"pbrMetallicRoughness":{
				"baseColorTexture":{
					"index":3
				},
				"metallicRoughnessTexture":{
					"index":2
				}
			}
		}
	],
	"meshes":[
		{
			"name":"mesh_helmet_LP_13930damagedHelmet",
			"primitives":[
				{
					"attributes":{
						"POSITION":0,
						"NORMAL":1,
						"TEXCOORD_0":2,
						"TANGENT":3
					},
					"indices":4,
					"material":0
				}
			]
		}
	],
	"textures":[
		{
			"extensions":{
				"KHR_texture_basisu":{
					"source":0
				}
			},
			"sampler":0
		},
		{
			"extensions":{
				"KHR_texture_basisu":{
					"source":1
				}
			},
			"sampler":0
		},
		{
			"extensions":{
				"KHR_texture_basisu":{
					"source":2
				}
			},
			"sampler":0
		},
		{
			"extensions":{
				"KHR_texture_basisu":{
					"source":3
				}
			},
			"sampler":0
		}
	],
	"images":[
		{
			"mimeType":"image/ktx2",
			"name":"Image_2",
			"uri":"Image_2.ktx2"
		},
		{
			"mimeType":"image/ktx2",
			"name":"Image_4",
			"uri":"Image_4.ktx2"
		},
		{
			"mimeType":"image/ktx2",
			"name":"Image_3-Image_1",
			"uri":"Image_3-Image_1.ktx2"
		},
		{
			"mimeType":"image/ktx2",
			"name":"Image_0",
			"uri":"Image_0.ktx2"
		}
	],
	"accessors":[
		{
			"bufferView":0,
			"componentType":5126,
			"count":14806,
			"max":[
				0.9424954056739807,
				0.9009949564933777,
				0.8128451108932495
			],
			"min":[
				-0.9474585652351379,
				-0.900973916053772,
				-1.18715500831604
			],
			"type":"VEC3"
		},
		{
			"bufferView":1,
			"componentType":5126,
			"count":14806,
			"type":"VEC3"
		},
		{
			"bufferView":2,
			"componentType":5126,
			"count":14806,
			"type":"VEC2"
		},
		{
			"bufferView":3,
			"componentType":5126,
			"count":14806,
			"type":"VEC4"
		},
		{
			"bufferView":4,
			"componentType":5123,
			"count":46356,
			"type":"SCALAR"
		}
	],
	"bufferViews":[
		{
			"buffer":0,
			"byteLength":177672,
			"byteOffset":0,
			"target":34962
		},
		{
			"buffer":0,
			"byteLength":177672,
			"byteOffset":177672,
			"target":34962
		},
		{
			"buffer":0,
			"byteLength":118448,
			"byteOffset":355344,
			"target":34962
		},
		{
			"buffer":0,
			"byteLength":236896,
			"byteOffset":473792,
			"target":34962
		},
		{
			"buffer":0,
			"byteLength":92712,
			"byteOffset":710688,
			"target":34963
		}
	],
	"samplers":[
		{
			"magFilter":9729,
			"minFilter":9987
		}
	],
	"buffers":[
		{
			"byteLength":803400,
			"uri":"dh.bin"
		}
	]
}
