{
	"asset":{
		"generator":"Khronos glTF Blender I/O v5.1.18",
		"version":"2.0"
	},
	"extensionsUsed":[
		"KHR_texture_basisu",
		"KHR_lights_punctual"
	],
	"extensionsRequired":[
		"KHR_texture_basisu",
		"KHR_lights_punctual"
	],
	"extensions":{
		"KHR_lights_punctual":{
			"lights":[
				{
					"color":[
						1,
						1,
						1
					],
					"intensity":271757.0653294113,
					"type":"point",
					"name":"Area"
				},
				{
					"color":[
						1,
						1,
						1
					],
					"intensity":271757.0653294113,
					"type":"point",
					"name":"Area.004"
				},
				{
					"color":[
						1,
						1,
						1
					],
					"intensity":271757.0653294113,
					"type":"point",
					"name":"Area.005"
				},
				{
					"color":[
						1,
						1,
						1
					],
					"intensity":271757.0653294113,
					"type":"point",
					"name":"Area.006"
				},
				{
					"color":[
						1,
						1,
						1
					],
					"intensity":271757.0653294113,
					"type":"point",
					"name":"Area.007"
				}
			]
		}
	},
	"scene":0,
	"scenes":[
		{
			"extras":{
				"uuid":"50f4a7f0-e3d3-48fc-9ccb-c0a79db22f40",
				"assets reported":{},
				"ypui":{
					"expand_channels":1,
					"expand_mask_channels":0,
					"show_bake_targets":0,
					"show_channels":1,
					"show_layers":1,
					"show_materials":1,
					"show_object":0,
					"show_stats":0,
					"show_support":0,
					"show_test":0,
					"tree_name":"Ucupaint rock.005"
				},
				"BSBST_settings":{
					"preset_object":{},
					"edit_toggle":0
				},
				"texops_rgba_props":{
					"isolated_channel":"",
					"show_g":1,
					"source_image":"Plane Layer 4",
					"source_image_hash":0,
					"show_r":1
				},
				"polycount_props":{},
				"ve_edit":{
					"ori_texpaint_brush":"Paint Hard",
					"ori_texpaint_blending_mode":"MIX"
				},
				"yp":{
					"ori_look":"None",
					"ori_view_transform":"",
					"ori_display_device":"sRGB",
					"ori_exposure":0.0,
					"ori_gamma":1.0,
					"ori_use_curve_mapping":0
				},
				"place_tool":{},
				"keentools_gt_settings":{},
				"keentools_ft_settings":{},
				"keentools_fb_settings":{},
				"KTX2ExportProperties":{
					"enabled":1,
					"basecolor":{
						"basisu":{
							"etc1s":{}
						},
						"astc":{}
					},
					"normal":{
						"basisu":{
							"uastc":{}
						},
						"astc":{}
					},
					"orm":{
						"basisu":{
							"uastc":{}
						},
						"astc":{}
					},
					"other":{},
					"generate_mipmaps":1,
					"create_fallback":0
				}
			},
			"name":"Scene",
			"nodes":[
				0,
				1,
				2,
				3,
				4,
				5
			]
		}
	],
	"nodes":[
		{
			"extras":{
				"yp_decal":{},
				"ant_landscape":{}
			},
			"mesh":0,
			"name":"Plane.003",
			"rotation":[
				0.5002802014350891,
				0.5036775469779968,
				0.4941352605819702,
				0.501855731010437
			],
			"scale":[
				0.16959863901138306,
				0.16959866881370544,
				0.16959863901138306
			],
			"translation":[
				-0.1330592930316925,
				1.9509013891220093,
				1.3434550762176514
			]
		},
		{
			"extensions":{
				"KHR_lights_punctual":{
					"light":0
				}
			},
			"extras":{
				"ant_landscape":{},
				"yp_decal":{}
			},
			"name":"Area",
			"rotation":[
				0.2331823706626892,
				-0.028892608359456062,
				0,
				0.9720038175582886
			],
			"scale":[
				0.14132869243621826,
				0.1413286328315735,
				0.1413286328315735
			],
			"translation":[
				-0.22699227929115295,
				0.36952269077301025,
				1.142297387123108
			]
		},
		{
			"extensions":{
				"KHR_lights_punctual":{
					"light":1
				}
			},
			"extras":{
				"ant_landscape":{},
				"yp_decal":{}
			},
			"name":"Area.004",
			"rotation":[
				-0.6389015316963196,
				0.22413036227226257,
				-0.7037127614021301,
				0.21531090140342712
			],
			"translation":[
				-0.6386820077896118,
				0.42279136180877686,
				1.9925601482391357
			]
		},
		{
			"extensions":{
				"KHR_lights_punctual":{
					"light":2
				}
			},
			"extras":{
				"ant_landscape":{},
				"yp_decal":{}
			},
			"name":"Area.005",
			"rotation":[
				-0.6389015316963196,
				0.22413036227226257,
				-0.7037127614021301,
				0.21531090140342712
			],
			"translation":[
				-1.3070154190063477,
				4.617363929748535,
				2.6589818000793457
			]
		},
		{
			"extensions":{
				"KHR_lights_punctual":{
					"light":3
				}
			},
			"extras":{
				"ant_landscape":{},
				"yp_decal":{}
			},
			"name":"Area.006",
			"rotation":[
				-0.6389015316963196,
				0.22413036227226257,
				-0.7037127614021301,
				0.21531090140342712
			],
			"translation":[
				0.2421962022781372,
				3.3754451274871826,
				4.107487678527832
			]
		},
		{
			"extensions":{
				"KHR_lights_punctual":{
					"light":4
				}
			},
			"extras":{
				"ant_landscape":{},
				"yp_decal":{}
			},
			"name":"Area.007",
			"rotation":[
				-0.6389015316963196,
				0.22413036227226257,
				-0.7037127614021301,
				0.21531090140342712
			],
			"translation":[
				2.4476065635681152,
				2.7489888668060303,
				3.056945562362671
			]
		}
	],
	"materials":[
		{
			"doubleSided":true,
			"extras":{
				"yp":{
					"active_ypaint_node":"Group",
					"ori_bsdf":"",
					"ori_bsdf_output_index":0,
					"expand_content":0
				}
			},
			"name":"Plane",
			"normalTexture":{
				"index":0
			},
			"pbrMetallicRoughness":{
				"baseColorTexture":{
					"index":1
				},
				"metallicRoughnessTexture":{
					"index":2
				}
			}
		},
		{
			"doubleSided":true,
			"extras":{
				"yp":{
					"active_ypaint_node":"Group",
					"expand_content":0,
					"ori_bsdf":"",
					"ori_bsdf_output_index":0
				}
			},
			"name":"B\u00e9zierCurve",
			"normalTexture":{
				"index":3
			},
			"pbrMetallicRoughness":{
				"baseColorFactor":[
					0.800000011920929,
					0.800000011920929,
					0.800000011920929,
					1
				],
				"metallicRoughnessTexture":{
					"index":4
				}
			}
		}
	],
	"meshes":[
		{
			"name":"Plane.003",
			"primitives":[
				{
					"attributes":{
						"POSITION":0,
						"NORMAL":1,
						"TEXCOORD_0":2,
						"TANGENT":3
					},
					"indices":4,
					"material":0
				},
				{
					"attributes":{
						"POSITION":5,
						"NORMAL":6,
						"TEXCOORD_0":7,
						"TANGENT":8
					},
					"indices":9,
					"material":1
				}
			]
		}
	],
	"textures":[
		{
			"extensions":{
				"KHR_texture_basisu":{
					"source":0
				}
			},
			"sampler":0
		},
		{
			"extensions":{
				"KHR_texture_basisu":{
					"source":1
				}
			},
			"sampler":0
		},
		{
			"extensions":{
				"KHR_texture_basisu":{
					"source":2
				}
			},
			"sampler":0
		},
		{
			"extensions":{
				"KHR_texture_basisu":{
					"source":3
				}
			},
			"sampler":0
		},
		{
			"extensions":{
				"KHR_texture_basisu":{
					"source":4
				}
			},
			"sampler":0
		}
	],
	"images":[
		{
			"mimeType":"image/ktx2",
			"name":"Bump",
			"uri":"Bump.ktx2"
		},
		{
			"mimeType":"image/ktx2",
			"name":"Plane Layer 4",
			"uri":"Plane Layer 4.ktx2"
		},
		{
			"mimeType":"image/ktx2",
			"name":"Metallic-Plane Layer 1",
			"uri":"Metallic-Plane Layer 1.ktx2"
		},
		{
			"mimeType":"image/ktx2",
			"name":"B\u00e9zierCurve Layer 1",
			"uri":"B\u00e9zierCurve Layer 1.ktx2"
		},
		{
			"mimeType":"image/ktx2",
			"name":"B\u00e9zierCurve Layer",
			"uri":"B\u00e9zierCurve Layer.ktx2"
		}
	],
	"accessors":[
		{
			"bufferView":0,
			"componentType":5126,
			"count":7996,
			"max":[
				0.3900874853134155,
				3.863673210144043,
				0.176171213388443
			],
			"min":[
				-0.3901267647743225,
				-4.491153240203857,
				-0.134342223405838
			],
			"type":"VEC3"
		},
		{
			"bufferView":1,
			"componentType":5126,
			"count":7996,
			"type":"VEC3"
		},
		{
			"bufferView":2,
			"componentType":5126,
			"count":7996,
			"type":"VEC2"
		},
		{
			"bufferView":3,
			"componentType":5126,
			"count":7996,
			"type":"VEC4"
		},
		{
			"bufferView":4,
			"componentType":5123,
			"count":40302,
			"type":"SCALAR"
		},
		{
			"bufferView":5,
			"componentType":5126,
			"count":4485,
			"max":[
				1.288449764251709,
				-1.84988272190094,
				0.11670015752315521
			],
			"min":[
				-1.2884495258331299,
				-2.7835261821746826,
				-0.0819488912820816
			],
			"type":"VEC3"
		},
		{
			"bufferView":6,
			"componentType":5126,
			"count":4485,
			"type":"VEC3"
		},
		{
			"bufferView":7,
			"componentType":5126,
			"count":4485,
			"type":"VEC2"
		},
		{
			"bufferView":8,
			"componentType":5126,
			"count":4485,
			"type":"VEC4"
		},
		{
			"bufferView":9,
			"componentType":5123,
			"count":19776,
			"type":"SCALAR"
		}
	],
	"bufferViews":[
		{
			"buffer":0,
			"byteLength":95952,
			"byteOffset":0,
			"target":34962
		},
		{
			"buffer":0,
			"byteLength":95952,
			"byteOffset":95952,
			"target":34962
		},
		{
			"buffer":0,
			"byteLength":63968,
			"byteOffset":191904,
			"target":34962
		},
		{
			"buffer":0,
			"byteLength":127936,
			"byteOffset":255872,
			"target":34962
		},
		{
			"buffer":0,
			"byteLength":80604,
			"byteOffset":383808,
			"target":34963
		},
		{
			"buffer":0,
			"byteLength":53820,
			"byteOffset":464412,
			"target":34962
		},
		{
			"buffer":0,
			"byteLength":53820,
			"byteOffset":518232,
			"target":34962
		},
		{
			"buffer":0,
			"byteLength":35880,
			"byteOffset":572052,
			"target":34962
		},
		{
			"buffer":0,
			"byteLength":71760,
			"byteOffset":607932,
			"target":34962
		},
		{
			"buffer":0,
			"byteLength":39552,
			"byteOffset":679692,
			"target":34963
		}
	],
	"samplers":[
		{
			"magFilter":9729,
			"minFilter":9987
		}
	],
	"buffers":[
		{
			"byteLength":719244,
			"uri":"Untitled.bin"
		}
	]
}
